<svg width="7" height="7" viewBox="0 0 7 7" fill="none" xmlns="http://www.w3.org/2000/svg">
<path fill-rule="evenodd" clip-rule="evenodd" d="M0.120239 5.44536C0.120271 5.23323 0.204554 5.0298 0.354553 4.8798C0.504553 4.7298 0.707987 4.64552 0.920118 4.64549L4.64572 4.64549L4.64572 0.919881C4.64937 0.710147 4.73524 0.510236 4.88485 0.363204C5.03446 0.216172 5.23584 0.133784 5.4456 0.133784C5.65537 0.133784 5.85674 0.216172 6.00635 0.363204C6.15596 0.510236 6.24183 0.710147 6.24548 0.919881L6.24548 5.44536C6.24545 5.6575 6.16117 5.86093 6.01117 6.01093C5.86117 6.16093 5.65773 6.24521 5.4456 6.24524L0.920118 6.24524C0.707987 6.24521 0.504553 6.16093 0.354553 6.01093C0.204554 5.86093 0.120271 5.6575 0.120239 5.44536Z" fill="#C8C7CB"/>
</svg>
